<svg xmlns="http://www.w3.org/2000/svg">
  <symbol id="arrow-right" viewBox="0 0 24 24"><path d="M5 12h14m-5-5 5 5-5 5"/></symbol>
  <symbol id="upload" viewBox="0 0 24 24"><path d="M12 16V4m-4 4 4-4 4 4M5 14v5h14v-5"/></symbol>
  <symbol id="close" viewBox="0 0 24 24"><path d="m6 6 12 12M18 6 6 18"/></symbol>
  <symbol id="history" viewBox="0 0 24 24"><path d="M4 12a8 8 0 1 0 2.3-5.7L4 8.6M4 4v4.6h4.6M12 7v5l3 2"/></symbol>
  <symbol id="copy" viewBox="0 0 24 24"><rect x="8" y="8" width="11" height="11" rx="2"/><path d="M16 8V6a2 2 0 0 0-2-2H6a2 2 0 0 0-2 2v8a2 2 0 0 0 2 2h2"/></symbol>
  <symbol id="down" viewBox="0 0 24 24"><path d="M12 4v16m-6-6 6 6 6-6"/></symbol>
  <symbol id="at" viewBox="0 0 24 24"><path d="M16 8v6a2 2 0 0 0 4 0v-2a8 8 0 1 0-3.1 6.3M16 12a4 4 0 1 1-8 0 4 4 0 0 1 8 0Z"/></symbol>
  <symbol id="external" viewBox="0 0 24 24"><path d="M14 5h5v5M19 5l-8 8M19 13v5a1 1 0 0 1-1 1H6a1 1 0 0 1-1-1V6a1 1 0 0 1 1-1h5"/></symbol>
  <symbol id="check" viewBox="0 0 24 24"><path d="m5 12 4 4L19 6"/></symbol>
  <symbol id="help" viewBox="0 0 24 24"><circle cx="12" cy="12" r="9"/><path d="M9.8 9a2.4 2.4 0 1 1 3.1 2.3c-.9.4-1.4.9-1.4 1.9M12 17h.01"/></symbol>
</svg>
